<?xml version="1.0" standalone="no"?>
<!DOCTYPE svg PUBLIC "-//W3C//DTD SVG 20010904//EN"
 "http://www.w3.org/TR/2001/REC-SVG-20010904/DTD/svg10.dtd">
<svg version="1.0" xmlns="http://www.w3.org/2000/svg"
 width="649.000000pt" height="649.000000pt" viewBox="0 0 649.000000 649.000000"
 preserveAspectRatio="xMidYMid meet">
<metadata>
Created by potrace 1.14, written by Peter Selinger 2001-2017
</metadata>
<g transform="translate(0.000000,649.000000) scale(0.100000,-0.100000)"
fill="#000000" stroke="none">
<path d="M1631 6057 c-51 -26 -62 -56 -66 -173 -8 -219 -32 -420 -70 -574 -8
-30 -16 -66 -18 -80 -5 -27 -42 -156 -57 -200 -130 -377 -293 -678 -522 -964
-119 -148 -302 -335 -423 -431 -27 -22 -52 -42 -55 -46 -9 -11 -227 -163 -314
-218 -92 -58 -112 -86 -101 -142 9 -49 20 -60 130 -130 631 -397 1081 -981
1300 -1688 34 -111 78 -302 90 -391 1 -8 5 -35 9 -60 13 -78 15 -93 22 -185 6
-79 8 -135 13 -252 1 -44 46 -92 92 -99 30 -5 56 5 175 64 233 118 421 195
554 227 3 0 30 8 60 17 76 22 227 56 275 62 22 2 51 7 65 10 26 5 64 10 190
23 100 10 434 10 540 -1 172 -17 303 -40 469 -82 266 -68 430 -133 719 -283
90 -47 134 -51 174 -14 34 31 39 52 44 171 2 64 6 135 9 157 3 22 7 67 11 100
3 33 10 89 16 125 5 36 12 79 14 95 3 17 18 84 35 150 141 571 420 1055 846
1468 40 38 87 81 104 96 18 14 40 33 49 41 18 18 109 88 195 151 34 24 104 71
157 103 106 66 132 97 124 151 -9 53 -21 67 -115 125 -170 106 -345 238 -475
360 -81 75 -225 224 -244 252 -9 13 -25 32 -35 43 -41 44 -160 208 -225 311
-142 224 -252 464 -337 734 -15 47 -28 92 -30 100 -2 8 -9 38 -15 65 -6 28
-13 59 -16 70 -2 11 -8 40 -13 65 -6 25 -13 63 -16 84 -3 21 -7 48 -10 60 -2
12 -7 46 -9 76 -3 30 -8 80 -11 110 -3 30 -7 105 -9 167 -3 61 -9 120 -14 130
-17 32 -48 54 -85 60 -30 4 -55 -5 -164 -61 -287 -148 -488 -220 -808 -293
-38 -8 -166 -29 -225 -37 -213 -28 -553 -28 -775 0 -143 18 -340 61 -491 107
-190 59 -312 109 -526 218 -140 71 -165 78 -207 56z m273 -337 c174 -81 435
-170 601 -206 55 -11 220 -42 260 -48 23 -4 52 -9 65 -11 14 -3 46 -6 72 -7
47 -2 46 -17 -2 -18 -34 0 -198 -34 -290 -60 -258 -73 -499 -190 -715 -348
-114 -84 -149 -113 -263 -225 l-92 -90 15 44 c8 24 19 53 25 64 20 41 81 239
110 352 34 138 67 319 76 418 4 39 8 77 10 85 1 8 3 34 3 58 1 51 -3 51 125
-8z m2807 8 c0 -24 2 -52 4 -63 2 -11 6 -49 9 -85 6 -63 11 -102 21 -146 3
-12 7 -39 10 -60 27 -184 125 -500 229 -739 15 -33 19 -51 11 -40 -98 125
-256 280 -395 387 -284 219 -626 373 -960 434 -19 3 -42 7 -50 9 -8 2 -30 4
-49 4 -48 1 -35 9 25 16 103 11 141 16 194 25 30 5 71 12 90 15 19 3 64 13
100 21 36 9 74 17 85 20 113 23 393 122 560 198 55 25 103 46 108 46 4 0 7
-19 8 -42z m-1216 -513 c270 -39 583 -153 800 -290 214 -136 442 -350 581
-546 45 -63 90 -130 100 -149 10 -19 24 -42 29 -50 24 -34 116 -241 144 -325
30 -92 67 -226 75 -280 3 -16 10 -59 16 -95 15 -87 21 -405 9 -505 -55 -470
-256 -889 -585 -1219 -291 -292 -630 -475 -1034 -561 -178 -37 -412 -50 -600
-32 -308 29 -645 141 -868 288 -24 16 -45 29 -48 29 -19 0 -257 196 -335 276
-125 129 -117 119 -185 210 -223 293 -370 663 -402 1014 -13 145 -7 413 12
520 3 14 10 54 16 89 35 200 137 460 256 658 112 185 319 419 480 543 266 205
533 332 829 394 110 23 125 26 195 32 36 3 67 8 70 11 6 5 395 -5 445 -12z
m1876 -1229 c169 -226 433 -481 682 -660 59 -43 107 -79 107 -80 0 -2 -39 -32
-87 -67 -219 -157 -453 -372 -612 -561 -40 -49 -75 -88 -77 -88 -2 0 4 19 12
43 18 50 60 259 69 337 3 30 8 73 10 95 6 48 6 318 1 360 -2 17 -6 60 -10 96
-14 145 -56 323 -117 492 -21 61 -36 107 -31 102 4 -6 28 -37 53 -69z m-4312
-130 c-16 -47 -35 -120 -44 -163 -22 -101 -21 -101 -30 -151 -4 -23 -9 -54
-11 -70 -3 -15 -7 -121 -9 -237 -4 -236 7 -356 51 -543 7 -35 14 -66 14 -69 0
-3 -21 19 -47 48 -145 165 -371 368 -565 508 -49 35 -88 65 -88 66 0 1 39 31
88 65 222 160 450 370 601 553 35 42 64 77 65 77 1 0 -10 -38 -25 -84z m3815
-2283 c-85 -253 -136 -496 -160 -766 -4 -43 -10 -80 -14 -82 -4 -2 -25 4 -46
14 -209 101 -508 204 -710 246 -43 8 -87 18 -97 21 -12 4 24 20 97 44 328 111
619 291 860 535 61 62 112 113 112 114 1 0 -18 -56 -42 -126z m-3189 -38 c33
-32 114 -103 139 -120 16 -11 40 -30 55 -41 32 -26 160 -114 165 -114 3 0 37
-19 78 -43 40 -23 111 -60 158 -81 47 -20 92 -41 100 -45 8 -4 68 -25 134 -46
l118 -39 -163 -41 c-241 -61 -411 -122 -647 -232 -18 -9 -34 -14 -36 -12 -2 2
-7 40 -10 84 -20 238 -72 499 -140 708 -14 43 -26 81 -26 84 0 6 41 -28 75
-62z"/>
<path d="M2793 3746 l2 -181 51 -2 51 -2 28 80 c31 89 57 132 97 162 25 19 44
20 238 22 116 0 214 -3 216 -7 3 -5 1 -14 -4 -21 -5 -7 -29 -48 -52 -92 -24
-44 -52 -96 -63 -115 -23 -40 -394 -701 -504 -898 -77 -138 -86 -161 -74 -180
5 -9 128 -12 487 -10 l479 3 0 190 0 190 -54 0 -54 0 -23 -79 c-33 -116 -53
-154 -93 -179 -34 -21 -49 -22 -263 -25 -126 -2 -228 -2 -228 1 0 2 36 69 81
148 44 79 93 167 109 194 69 125 119 214 142 255 14 25 54 97 89 160 35 63 69
124 76 135 7 11 16 27 20 35 4 8 32 60 63 115 112 197 131 237 128 258 l-3 22
-472 1 -472 1 2 -181z"/>
</g>
</svg>
